<?xml version="1.0" standalone="no"?>
<!DOCTYPE svg PUBLIC "-//W3C//DTD SVG 20010904//EN"
 "http://www.w3.org/TR/2001/REC-SVG-20010904/DTD/svg10.dtd">
<svg version="1.0" xmlns="http://www.w3.org/2000/svg"
 width="1280.000000pt" height="1036.000000pt" viewBox="0 0 1280.000000 1036.000000"
 preserveAspectRatio="xMidYMid meet">
<metadata>
Created by potrace 1.15, written by Peter Selinger 2001-2017
</metadata>
<g transform="translate(0.000000,1036.000000) scale(0.100000,-0.100000)"
fill="#092c4c" stroke="none">
<path d="M3312 10345 c-29 -8 -67 -23 -86 -32 -18 -10 -707 -407 -1531 -883
-1146 -662 -1512 -877 -1555 -917 -146 -134 -184 -379 -88 -569 14 -27 217
-382 452 -789 236 -407 462 -800 504 -874 114 -199 184 -268 313 -311 55 -19
81 -21 189 -18 115 3 130 6 190 34 36 17 350 196 699 397 349 202 636 367 638
367 2 0 3 -1426 3 -3169 0 -2081 3 -3187 10 -3222 32 -170 178 -316 350 -349
35 -7 1062 -10 2999 -10 2595 0 2954 2 3006 15 149 38 259 138 312 282 l23 64
0 3199 c0 1760 2 3200 4 3200 3 0 293 -166 645 -370 353 -203 662 -380 689
-394 71 -36 121 -46 230 -48 162 -1 263 39 359 147 33 35 212 338 563 946 283
491 521 907 529 923 42 96 51 194 26 289 -29 110 -81 185 -188 268 -69 53
-3051 1779 -3132 1813 -49 21 -64 21 -1012 24 l-962 3 -17 -60 c-19 -69 -37
-89 -119 -129 -415 -205 -1425 -218 -1915 -25 -84 33 -96 45 -115 109 -13 46
-19 54 -39 54 -17 0 -26 7 -30 25 l-6 25 -943 -1 c-780 0 -951 -3 -995 -14z"/>
</g>
</svg>
