<svg width="16" height="31" viewBox="0 0 16 31" fill="none" xmlns="http://www.w3.org/2000/svg">
<path d="M14.1946 8.81829V13.3637H0.728693V8.81829H14.1946ZM3.81108 30.6365V7.24159C3.81108 5.66015 4.11884 4.34859 4.73438 3.30693C5.35938 2.26526 6.21165 1.48401 7.29119 0.963177C8.37074 0.442344 9.59706 0.181927 10.9702 0.181927C11.8982 0.181927 12.7457 0.252951 13.5128 0.394997C14.2893 0.537042 14.867 0.664883 15.2457 0.77852L14.1662 5.32397C13.9295 5.24822 13.6359 5.17719 13.2855 5.1109C12.9446 5.04462 12.5942 5.01147 12.2344 5.01147C11.3442 5.01147 10.724 5.21981 10.3736 5.63647C10.0232 6.04367 9.84801 6.61659 9.84801 7.35522V30.6365H3.81108Z" fill="#3B5999"/>
</svg>
