<svg width="24" height="24" viewBox="0 0 24 24" fill="none" xmlns="http://www.w3.org/2000/svg">
<g clip-path="url(#clip0_385_66819)">
<path d="M5.54774 14.4638L4.74081 17.4762L1.79151 17.5386C0.910105 15.9037 0.410156 14.0333 0.410156 12.0456C0.410156 10.1236 0.877596 8.31106 1.70616 6.71509H1.7068L4.3325 7.19647L5.48272 9.80642C5.24198 10.5083 5.11077 11.2617 5.11077 12.0456C5.11086 12.8965 5.26498 13.7117 5.54774 14.4638Z" fill="#FBBB00"/>
<path d="M23.3875 9.87988C23.5206 10.581 23.59 11.3052 23.59 12.0452C23.59 12.875 23.5027 13.6845 23.3365 14.4653C22.7723 17.1223 21.2979 19.4424 19.2555 21.0842L19.2549 21.0836L15.9477 20.9148L15.4796 17.9929C16.8349 17.1981 17.894 15.9543 18.4519 14.4653H12.2539V9.87988H18.5423H23.3875Z" fill="#518EF8"/>
<path d="M19.2583 21.084L19.2589 21.0847C17.2726 22.6813 14.7493 23.6366 12.0025 23.6366C7.58843 23.6366 3.7507 21.1694 1.79297 17.5386L5.54919 14.4639C6.52804 17.0763 9.04811 18.9359 12.0025 18.9359C13.2724 18.9359 14.4621 18.5926 15.483 17.9933L19.2583 21.084Z" fill="#28B446"/>
<path d="M19.4004 3.12303L15.6454 6.19716C14.5889 5.53675 13.34 5.15525 12.0019 5.15525C8.98064 5.15525 6.41344 7.10021 5.48363 9.80628L1.70767 6.71495H1.70703C3.6361 2.99567 7.52223 0.45459 12.0019 0.45459C14.8143 0.45459 17.393 1.45639 19.4004 3.12303Z" fill="#F14336"/>
</g>
<defs>
<clipPath id="clip0_385_66819">
<rect width="23.1818" height="23.1818" fill="white" transform="translate(0.410156 0.45459)"/>
</clipPath>
</defs>
</svg>
