<svg width="248" height="248" viewBox="0 0 248 248" fill="none" xmlns="http://www.w3.org/2000/svg">
<path d="M124.151 0C122.126 0 120.1 0.0478967 118.075 0.150534C116.05 0.246327 114.031 0.396862 112.012 0.595293C109.994 0.793723 107.982 1.04005 105.977 1.34112C103.973 1.63534 101.975 1.98431 99.9903 2.38117C97.9992 2.77119 96.0217 3.21595 94.0579 3.7086C92.0941 4.20126 90.1372 4.74181 88.2008 5.33026C86.2575 5.91871 84.3348 6.55506 82.4258 7.23931C80.5167 7.91671 78.6282 8.64885 76.7534 9.42204C74.8785 10.2021 73.0311 11.0232 71.1973 11.8853C69.3635 12.7543 67.5503 13.6644 65.7644 14.6223C63.9785 15.5734 62.2132 16.5724 60.4752 17.6193C58.7372 18.6593 57.0266 19.7404 55.3365 20.8695C53.6533 21.9916 51.9974 23.1617 50.3689 24.3659C48.7404 25.5771 47.1461 26.8224 45.5792 28.1088C44.0054 29.3951 42.4727 30.7157 40.9742 32.0774C39.4689 33.439 38.0046 34.8349 36.5677 36.2718C35.1376 37.7019 33.7349 39.173 32.3801 40.6715C31.0185 42.1768 29.691 43.7095 28.4047 45.2765C27.1183 46.8434 25.873 48.4377 24.6618 50.0662C23.4576 51.6947 22.2875 53.3505 21.1654 55.0406C20.0364 56.7239 18.9552 58.4345 17.9084 60.1725C16.8683 61.9104 15.8693 63.6758 14.9182 65.4617C13.9603 67.2544 13.0502 69.0608 12.1812 70.8946C11.3122 72.7283 10.4911 74.5826 9.71795 76.4506C8.94475 78.3255 8.21261 80.214 7.52837 82.123C6.84412 84.0321 6.20778 85.9548 5.61933 87.898C5.03088 89.8344 4.49032 91.7914 3.99767 93.7552C3.50501 95.7189 3.06025 97.6964 2.67023 99.6876C2.27337 101.672 1.92441 103.67 1.63018 105.675C1.32911 107.68 1.08279 109.691 0.884355 111.71C0.685925 113.728 0.535391 115.747 0.432754 117.772C0.336959 119.798 0.289062 121.823 0.289062 123.848C0.289062 125.88 0.336959 127.906 0.432754 129.924C0.535391 131.95 0.685925 133.975 0.884355 135.994C1.08279 138.005 1.32911 140.017 1.62334 142.022C1.9244 144.027 2.26653 146.025 2.66339 148.016C3.06025 150 3.50501 151.978 3.99767 153.948C4.49032 155.912 5.03088 157.862 5.61933 159.805C6.20778 161.742 6.84412 163.671 7.52153 165.58C8.20577 167.489 8.93791 169.378 9.71111 171.253C10.4911 173.121 11.3122 174.975 12.1744 176.809C13.0434 178.643 13.9534 180.449 14.9114 182.235C15.8625 184.028 16.8615 185.786 17.9084 187.524C18.9484 189.269 20.0295 190.979 21.1585 192.663C22.2807 194.346 23.4507 196.009 24.655 197.637C25.8661 199.259 27.1114 200.86 28.3978 202.427C29.6842 203.994 31.0048 205.526 32.3664 207.032C33.7281 208.53 35.1239 210.001 36.5609 211.432C37.9909 212.868 39.4621 214.264 40.9605 215.626C42.4659 216.988 43.9986 218.308 45.5655 219.595C47.1324 220.881 48.7267 222.126 50.3552 223.337C51.9837 224.542 53.6396 225.712 55.3297 226.841C57.0129 227.963 58.7235 229.051 60.4615 230.091C62.2063 231.131 63.9648 232.13 65.7507 233.088C67.5434 234.039 69.3498 234.956 71.1836 235.818C73.0174 236.687 74.8717 237.508 76.7397 238.281C78.6145 239.061 80.503 239.787 82.4121 240.471C84.3211 241.155 86.2438 241.791 88.1871 242.38C90.1235 242.968 92.0804 243.509 94.0442 244.002C96.008 244.494 97.9855 244.939 99.9766 245.336C101.968 245.726 103.959 246.075 105.964 246.376C107.969 246.67 109.98 246.916 111.999 247.115C114.017 247.313 116.036 247.464 118.061 247.566C120.087 247.662 122.112 247.71 124.137 247.71C126.17 247.717 128.195 247.662 130.22 247.566C132.239 247.464 134.264 247.313 136.283 247.115C138.294 246.916 140.306 246.67 142.311 246.376C144.316 246.075 146.314 245.733 148.305 245.336C150.289 244.939 152.267 244.494 154.237 244.002C156.201 243.509 158.158 242.968 160.094 242.38C162.038 241.791 163.96 241.155 165.869 240.471C167.778 239.793 169.667 239.061 171.542 238.288C173.41 237.508 175.264 236.687 177.098 235.825C178.932 234.956 180.738 234.046 182.524 233.088C184.317 232.137 186.075 231.138 187.82 230.091C189.558 229.051 191.269 227.97 192.952 226.841C194.635 225.712 196.298 224.548 197.926 223.337C199.548 222.133 201.149 220.888 202.716 219.601C204.283 218.315 205.816 216.994 207.321 215.633C208.819 214.271 210.29 212.868 211.721 211.438C213.157 210.001 214.553 208.537 215.915 207.032C217.277 205.533 218.597 204.001 219.884 202.434C221.17 200.867 222.415 199.266 223.626 197.637C224.831 196.009 226.001 194.353 227.123 192.67C228.252 190.986 229.333 189.269 230.38 187.531C231.42 185.793 232.419 184.034 233.377 182.242C234.328 180.456 235.238 178.643 236.107 176.816C236.976 174.982 237.797 173.128 238.57 171.253C239.35 169.385 240.076 167.489 240.76 165.58C241.444 163.678 242.08 161.749 242.669 159.812C243.257 157.869 243.798 155.919 244.291 153.955C244.783 151.984 245.228 150.007 245.618 148.023C246.015 146.031 246.364 144.033 246.658 142.029C246.959 140.024 247.205 138.012 247.404 136C247.602 133.982 247.753 131.957 247.849 129.931C247.951 127.913 247.999 125.88 247.999 123.855C247.999 121.83 247.951 119.804 247.849 117.779C247.753 115.754 247.602 113.735 247.404 111.717C247.205 109.698 246.959 107.686 246.658 105.682C246.364 103.677 246.015 101.679 245.625 99.6944C245.228 97.7033 244.783 95.7258 244.291 93.762C243.798 91.7982 243.257 89.8413 242.669 87.9049C242.08 85.9616 241.444 84.0389 240.76 82.1299C240.083 80.2208 239.35 78.3323 238.577 76.4575C237.797 74.5895 236.976 72.7352 236.114 70.9014C235.245 69.0676 234.335 67.2612 233.377 65.4685C232.426 63.6826 231.427 61.9241 230.387 60.1793C229.34 58.4413 228.259 56.7307 227.13 55.0475C226.008 53.3642 224.838 51.7015 223.633 50.073C222.422 48.4513 221.177 46.8502 219.89 45.2833C218.604 43.7164 217.283 42.1837 215.922 40.6783C214.56 39.1798 213.164 37.7087 211.727 36.2786C210.297 34.8417 208.826 33.4459 207.328 32.0842C205.822 30.7226 204.29 29.402 202.723 28.1156C201.156 26.8292 199.562 25.5839 197.933 24.3728C196.305 23.1685 194.649 21.9985 192.959 20.8763C191.275 19.7473 189.565 18.6662 187.827 17.6193C186.089 16.5792 184.323 15.5802 182.538 14.6223C180.752 13.6712 178.938 12.7612 177.105 11.8922C175.278 11.0232 173.423 10.2021 171.549 9.42889C169.674 8.65569 167.785 7.92355 165.876 7.23931C163.967 6.55506 162.044 5.91871 160.108 5.33026C158.165 4.74181 156.215 4.20126 154.244 3.7086C152.28 3.22279 150.303 2.77803 148.318 2.38117C146.327 1.98431 144.329 1.63534 142.325 1.34112C140.32 1.04005 138.308 0.793723 136.289 0.595293C134.278 0.396862 132.252 0.246327 130.227 0.150534C128.209 0.0478967 126.183 0 124.151 0Z" fill="#092C4C"/>
<path d="M193.733 93.5634L191.47 93.9716C185.17 95.1146 179.035 94.5499 173.051 92.2844L136.915 78.4935C135.285 77.8744 133.6 77.4662 131.867 77.2689C130.127 77.0716 128.394 77.092 126.66 77.3301C124.934 77.5682 123.256 78.0173 121.646 78.6772C120.03 79.3372 118.524 80.1808 117.121 81.2217L83.956 105.823C83.6534 106.048 83.4195 106.327 83.2545 106.66C83.0825 106.994 83 107.347 83 107.715C83 108.089 83.0825 108.443 83.2545 108.769C83.4195 109.103 83.6534 109.382 83.956 109.606C84.7057 110.157 85.4966 110.647 86.322 111.076C87.1542 111.504 88.007 111.865 88.8943 112.151C89.7815 112.443 90.6894 112.661 91.611 112.811C92.5326 112.96 93.4611 113.035 94.3965 113.035C95.3319 113.035 96.2604 112.96 97.182 112.811C98.1105 112.661 99.0115 112.443 99.8988 112.151C100.786 111.865 101.646 111.504 102.478 111.076C103.303 110.647 104.094 110.157 104.844 109.606L118.414 99.537C119.232 98.9383 120.085 98.4008 120.986 97.9381C121.887 97.4755 122.823 97.0809 123.785 96.7679C124.748 96.4481 125.739 96.21 126.736 96.0535C127.74 95.8903 128.751 95.8086 129.769 95.8086C130.787 95.8086 131.791 95.8903 132.795 96.0535C133.799 96.21 134.783 96.4481 135.746 96.7679C136.716 97.0809 137.644 97.4755 138.545 97.9381C139.446 98.4008 140.306 98.9383 141.117 99.537L189.235 135.46C190.755 136.562 192.013 137.902 193.004 139.481C194.001 141.059 194.661 142.767 194.984 144.604V144.699C195.046 145.046 195.163 145.366 195.342 145.672C195.521 145.971 195.741 146.237 196.016 146.454C196.284 146.679 196.587 146.849 196.917 146.965C197.254 147.08 197.598 147.135 197.949 147.135H207L193.733 93.5634Z" fill="white"/>
<path d="M187.948 146.03C187.811 145.012 187.476 144.068 186.95 143.185C186.423 142.302 185.739 141.562 184.905 140.964L136.974 105.116C135.948 104.349 134.827 103.765 133.61 103.358C132.393 102.957 131.141 102.753 129.856 102.753C128.577 102.753 127.326 102.957 126.109 103.358C124.892 103.765 123.77 104.349 122.745 105.116L109.261 115.167C108.215 115.934 107.114 116.62 105.959 117.217C104.803 117.822 103.606 118.324 102.376 118.732C101.138 119.139 99.8732 119.445 98.5877 119.648C97.3022 119.852 96.0099 119.961 94.704 119.961C93.4048 119.961 92.1057 119.852 90.8202 119.648C89.5348 119.445 88.2766 119.139 87.039 118.732C85.8014 118.324 84.6049 117.822 83.4493 117.217C82.2938 116.62 81.1998 115.934 80.1536 115.167C78.9365 114.263 77.9998 113.136 77.3434 111.771C76.687 110.413 76.3861 108.98 76.4408 107.473C76.516 106.02 76.9058 104.648 77.61 103.364C78.3075 102.088 79.2579 101.015 80.4476 100.166L103.606 82.8227C103.839 82.7004 104.037 82.5442 104.201 82.3405C104.372 82.1436 104.489 81.9127 104.564 81.6682C104.646 81.417 104.666 81.1657 104.646 80.9077C104.618 80.6496 104.543 80.4052 104.42 80.1743C104.297 79.9434 104.133 79.7465 103.935 79.5835C103.73 79.4205 103.504 79.2983 103.258 79.2236C103.005 79.1421 102.752 79.1217 102.492 79.1421C102.232 79.1693 101.986 79.244 101.753 79.3662L63.5862 92.6284C60.8033 93.5926 57.9384 94.1902 54.9982 94.4143L42 147.042H48.8649C51.1829 147.042 51.9965 147.415 52.6734 148.339C54.6153 151.021 56.7076 153.575 58.9503 156.006C61.1999 158.437 63.5794 160.732 66.1024 162.885C68.6186 165.037 71.2579 167.034 74.0135 168.881C76.769 170.721 79.6271 172.398 82.581 173.899C85.5348 175.407 88.5707 176.738 91.6886 177.885C94.7997 179.04 97.9723 180.004 101.2 180.778C104.434 181.559 107.695 182.143 110.998 182.537C114.294 182.931 117.603 183.128 120.926 183.134H121.152C121.671 183.141 122.17 183.066 122.663 182.91C123.155 182.754 123.606 182.523 124.023 182.218C124.441 181.919 124.803 181.559 125.097 181.145C125.398 180.724 125.623 180.269 125.774 179.78C126.129 178.809 126.17 177.817 125.89 176.819C125.61 175.821 125.063 174.999 124.256 174.34L117.343 169.186C116.974 168.921 116.659 168.602 116.413 168.222C116.16 167.842 115.989 167.434 115.9 166.986C115.812 166.545 115.805 166.097 115.887 165.648C115.962 165.207 116.126 164.786 116.365 164.399C116.632 164.012 116.96 163.686 117.364 163.428C117.76 163.17 118.198 163 118.67 162.925C119.135 162.844 119.6 162.857 120.064 162.973C120.529 163.082 120.947 163.278 121.329 163.564L128.201 168.677L128.536 168.935L140.194 177.647C140.803 178.102 141.473 178.449 142.198 178.693C142.922 178.931 143.668 179.053 144.434 179.053C145.193 179.053 145.938 178.931 146.663 178.686C147.394 178.449 148.057 178.102 148.673 177.647C150.034 176.67 150.909 175.366 151.312 173.75C151.49 173.077 151.572 172.392 151.551 171.699C151.524 171.006 151.401 170.327 151.175 169.675C150.95 169.017 150.628 168.405 150.218 167.842C149.808 167.278 149.329 166.789 148.769 166.368L134.738 155.978C134.403 155.741 134.123 155.456 133.89 155.116C133.664 154.783 133.493 154.417 133.391 154.023C133.282 153.629 133.247 153.235 133.282 152.828C133.316 152.42 133.418 152.033 133.589 151.666C133.808 151.198 134.123 150.797 134.526 150.471C134.936 150.145 135.387 149.921 135.893 149.799C136.399 149.677 136.912 149.663 137.418 149.772C137.931 149.874 138.396 150.084 138.806 150.397L152.892 160.922H152.96L160.81 166.769C161.404 167.231 162.061 167.591 162.765 167.855C163.476 168.113 164.208 168.263 164.96 168.297C165.719 168.337 166.457 168.256 167.189 168.066C167.921 167.869 168.604 167.57 169.24 167.169C169.705 166.857 170.129 166.497 170.512 166.09C170.895 165.676 171.223 165.227 171.497 164.738C171.77 164.25 171.982 163.733 172.133 163.197C172.283 162.66 172.365 162.11 172.386 161.554C172.406 160.997 172.358 160.44 172.242 159.897C172.133 159.347 171.955 158.824 171.715 158.314C171.476 157.812 171.182 157.337 170.827 156.902C170.478 156.467 170.074 156.08 169.63 155.734L151.921 142.492C151.586 142.255 151.305 141.969 151.073 141.63C150.84 141.297 150.669 140.93 150.567 140.537C150.457 140.143 150.423 139.742 150.457 139.341C150.492 138.934 150.594 138.547 150.758 138.173C150.984 137.705 151.298 137.311 151.702 136.985C152.112 136.659 152.563 136.435 153.069 136.313C153.575 136.19 154.081 136.184 154.594 136.286C155.1 136.387 155.565 136.598 155.982 136.91L173.746 150.179L173.821 150.247L176.392 152.196C177.138 152.76 177.958 153.167 178.861 153.418C179.756 153.67 180.673 153.751 181.603 153.656C182.532 153.568 183.408 153.317 184.242 152.896C185.076 152.474 185.801 151.918 186.423 151.225C187.667 149.704 188.173 147.972 187.948 146.03Z" fill="white"/>
<path d="M12.9633 69.1348C9.76586 75.5492 7.14407 82.1826 5.10491 89.0351C3.06574 95.8945 1.63694 102.87 0.818498 109.969C-0.00687868 117.068 -0.20802 124.188 0.215072 131.321C0.638163 138.454 1.67162 145.498 3.32931 152.453L30.9413 159.135L51 78.3217L12.9633 69.1348Z" fill="white"/>
<path d="M235.198 68.9377L197.688 78.1203L217.476 158.854L244.729 152.176C246.898 142.864 247.986 133.421 247.979 123.855C248 114.331 246.926 104.936 244.77 95.6575C242.608 86.3791 239.42 77.4771 235.198 68.9377Z" fill="white"/>
<path d="M22.4965 150.135C21.766 150.135 21.0702 150.008 20.3953 149.755C19.7204 149.502 19.1221 149.142 18.6072 148.674C18.0923 148.199 17.6958 147.662 17.4175 147.048C17.1392 146.435 17 145.796 17 145.132C17 144.474 17.1392 143.835 17.4175 143.221C17.6958 142.608 18.0923 142.064 18.6072 141.596C19.1221 141.128 19.7204 140.767 20.3953 140.514C21.0702 140.261 21.766 140.135 22.4965 140.135C23.2271 140.135 23.9298 140.261 24.6047 140.514C25.2796 140.767 25.871 141.128 26.3928 141.596C26.9077 142.064 27.3042 142.608 27.5825 143.221C27.8608 143.835 28 144.474 28 145.132C28 145.796 27.8608 146.435 27.5825 147.048C27.3042 147.662 26.9077 148.199 26.3928 148.674C25.871 149.142 25.2796 149.502 24.6047 149.755C23.9298 150.008 23.2271 150.135 22.4965 150.135Z" fill="#092C4C"/>
<path d="M224.497 150.135C223.773 150.135 223.07 150.008 222.395 149.755C221.72 149.502 221.122 149.142 220.607 148.674C220.092 148.199 219.696 147.662 219.417 147.048C219.139 146.435 219 145.796 219 145.132C219 144.474 219.139 143.835 219.417 143.221C219.696 142.608 220.092 142.064 220.607 141.596C221.122 141.128 221.72 140.767 222.395 140.514C223.07 140.261 223.773 140.135 224.497 140.135C225.227 140.135 225.93 140.261 226.605 140.514C227.28 140.767 227.871 141.128 228.393 141.596C228.908 142.064 229.304 142.608 229.583 143.221C229.861 143.835 230 144.474 230 145.132C230 145.796 229.861 146.435 229.583 147.048C229.304 147.662 228.908 148.199 228.393 148.674C227.871 149.142 227.28 149.502 226.605 149.755C225.93 150.008 225.227 150.135 224.497 150.135Z" fill="#092C4C"/>
</svg>
