<svg width="27" height="27" viewBox="0 0 27 27" fill="none" xmlns="http://www.w3.org/2000/svg">
<g id="cart-frame">
<path id="cart" fill-rule="evenodd" clip-rule="evenodd" d="M0 1.625C0 1.14175 0.391751 0.75 0.875 0.75H3.5C3.90151 0.75 4.25149 1.02326 4.34888 1.41278L5.05818 4.25H25.375C25.6353 4.25 25.8821 4.36589 26.0483 4.56619C26.2146 4.7665 26.283 5.03041 26.235 5.28625L23.61 19.2863C23.5324 19.7001 23.1711 20 22.75 20H21H8.75H7C6.57894 20 6.21758 19.7001 6.13999 19.2863L3.5198 5.3119L2.81682 2.5H0.875C0.391751 2.5 0 2.10825 0 1.625ZM5.42931 6L7.72619 18.25H22.0238L24.3207 6H5.42931ZM8.75 20C6.817 20 5.25 21.567 5.25 23.5C5.25 25.433 6.817 27 8.75 27C10.683 27 12.25 25.433 12.25 23.5C12.25 21.567 10.683 20 8.75 20ZM21 20C19.067 20 17.5 21.567 17.5 23.5C17.5 25.433 19.067 27 21 27C22.933 27 24.5 25.433 24.5 23.5C24.5 21.567 22.933 20 21 20ZM8.75 21.75C7.7835 21.75 7 22.5335 7 23.5C7 24.4665 7.7835 25.25 8.75 25.25C9.7165 25.25 10.5 24.4665 10.5 23.5C10.5 22.5335 9.7165 21.75 8.75 21.75ZM21 21.75C20.0335 21.75 19.25 22.5335 19.25 23.5C19.25 24.4665 20.0335 25.25 21 25.25C21.9665 25.25 22.75 24.4665 22.75 23.5C22.75 22.5335 21.9665 21.75 21 21.75Z" fill="#092C4C"/>
</g>
</svg>
