<svg width="32" height="32" viewBox="0 0 32 32" fill="none" xmlns="http://www.w3.org/2000/svg">
<path d="M9.00011 12.9996C7.89386 12.9996 7.00011 13.8871 7.00011 14.9434C7.00011 16.1059 7.89386 16.9996 9.00011 16.9996C10.1064 16.9996 10.9439 16.109 10.9439 14.9996C10.9439 13.8902 10.1126 12.9996 9.00011 12.9996ZM16.0001 12.9434C14.8907 12.9434 14.0564 13.834 14.0564 14.9434C14.0564 16.0527 14.947 16.8871 16.0001 16.8871C17.0532 16.8871 17.9439 15.9965 17.9439 14.9434C17.9439 13.8902 17.1126 12.9434 16.0001 12.9434ZM23.0001 12.9996C21.8907 12.9996 21.0564 13.8902 21.0564 14.9996C21.0564 16.109 21.947 16.9996 23.0001 16.9996C24.1095 16.9996 24.9995 16.109 24.9995 14.9996C25.0001 13.8871 24.1126 12.9996 23.0001 12.9996ZM16.0001 1.94336C7.16261 1.94336 0.0563577 7.76336 0.0563577 14.9434C0.0563577 17.9196 1.30073 20.6465 3.36323 22.8371C2.43386 25.3059 0.496358 27.3921 0.465108 27.4152C0.0511077 27.8527 -0.0582048 28.4934 0.176108 29.0402C0.363733 29.6371 0.898858 29.9996 1.50011 29.9996C5.34323 29.9996 8.31886 28.3902 10.1939 27.109C11.9982 27.6715 13.9539 27.9996 16.0001 27.9996C24.8376 27.9996 31.9439 22.179 31.9439 15.0559C31.9439 7.93273 24.8376 1.94336 16.0001 1.94336ZM16.0001 24.9996C14.3282 24.9996 12.6801 24.7418 11.1026 24.2421L9.68073 23.7968L8.46261 24.6559C7.57198 25.2884 6.34573 25.9921 4.86948 26.4684C5.33036 25.7109 5.76761 24.859 6.11136 23.9527L6.77511 22.2027L5.48636 20.8359C4.36323 19.6309 3.00386 17.6371 3.00386 14.9996C3.00386 9.48398 8.83136 4.99961 15.9476 4.99961C23.0639 4.99961 28.8914 9.48398 28.8914 14.9996C28.8914 20.5152 23.1751 24.9996 16.0001 24.9996Z" fill="#1E1E1E"/>
</svg>
