<svg width="23" height="26" viewBox="0 0 23 26" fill="none" xmlns="http://www.w3.org/2000/svg">
<g id="house-fill">
<path id="Path" d="M8.875 18.2407C8.875 19.7508 8.875 24.375 8.875 24.375C8.875 24.8582 8.48325 25.25 8 25.25H1C0.516751 25.25 0.125 24.8582 0.125 24.375V12.125C0.125 11.8929 0.217187 11.6704 0.381282 11.5063L10.8813 1.00628C11.223 0.664573 11.777 0.664573 12.1187 1.00628L22.6187 11.5063C22.7828 11.6704 22.875 11.8929 22.875 12.125V24.375C22.875 24.8582 22.4832 25.25 22 25.25H15C14.5168 25.25 14.125 24.8582 14.125 24.375C14.125 24.375 14.125 20.2809 14.125 18.25C14.125 17.8125 13.6875 17.375 13.25 17.375C11.7273 17.375 10.5741 17.375 9.75 17.375C9.3125 17.375 8.875 17.8125 8.875 18.2407Z" fill="#092C4C"/>
<path id="Path Copy 2" fill-rule="evenodd" clip-rule="evenodd" d="M20.25 3.375V9.5L16.75 6V3.375C16.75 2.89175 17.1418 2.5 17.625 2.5H19.375C19.8582 2.5 20.25 2.89175 20.25 3.375Z" fill="#092C4C"/>
</g>
</svg>
