<svg width="22" height="22" viewBox="0 0 22 22" fill="none" xmlns="http://www.w3.org/2000/svg">
<g id="person-frame">
<path id="Subtract" fill-rule="evenodd" clip-rule="evenodd" d="M14.5 5.75C14.5 7.683 12.933 9.25 11 9.25C9.067 9.25 7.5 7.683 7.5 5.75C7.5 3.817 9.067 2.25 11 2.25C12.933 2.25 14.5 3.817 14.5 5.75ZM11 11C13.8995 11 16.25 8.6495 16.25 5.75C16.25 2.85051 13.8995 0.5 11 0.5C8.1005 0.5 5.75 2.85051 5.75 5.75C5.75 8.6495 8.1005 11 11 11ZM21.5 19.75C21.5 21.5 19.75 21.5 19.75 21.5H2.25C2.25 21.5 0.5 21.5 0.5 19.75C0.5 18 2.25 12.75 11 12.75C19.75 12.75 21.5 18 21.5 19.75ZM19.75 19.7439C19.7475 19.312 19.4809 18.0183 18.2938 16.8312C17.1523 15.6897 15.0059 14.5 11 14.5C6.99404 14.5 4.84762 15.6897 3.70617 16.8312C2.51907 18.0183 2.25249 19.312 2.25 19.7439H19.75Z" fill="#092C4C"/>
</g>
</svg>
